<mxfile host="app.diagrams.net" agent="Mozilla/5.0 (Macintosh; Intel Mac OS X 10_15_7) AppleWebKit/537.36 (KHTML, like Gecko) Chrome/141.0.0.0 Safari/537.36" version="28.2.8">
  <diagram name="페이지-1" id="yggVZxNo2Je6g_O1C8U1">
    <mxGraphModel dx="3720" dy="1126" grid="1" gridSize="10" guides="1" tooltips="1" connect="1" arrows="1" fold="1" page="1" pageScale="1" pageWidth="827" pageHeight="1169" math="0" shadow="0">
      <root>
        <mxCell id="0" />
        <mxCell id="1" parent="0" />
        <mxCell id="4VSWZpuP7CSBDdDZYsOe-13" value="" style="rounded=0;whiteSpace=wrap;html=1;movable=0;resizable=0;rotatable=0;deletable=0;editable=0;locked=1;connectable=0;" parent="1" vertex="1">
          <mxGeometry x="-170" width="900" height="890" as="geometry" />
        </mxCell>
        <mxCell id="4VSWZpuP7CSBDdDZYsOe-1" value="Legacy API" style="rounded=1;whiteSpace=wrap;html=1;" parent="1" vertex="1">
          <mxGeometry x="60" y="600" width="120" height="60" as="geometry" />
        </mxCell>
        <mxCell id="4VSWZpuP7CSBDdDZYsOe-2" value="DB" style="shape=cylinder3;whiteSpace=wrap;html=1;boundedLbl=1;backgroundOutline=1;size=15;" parent="1" vertex="1">
          <mxGeometry x="180" y="740" width="60" height="80" as="geometry" />
        </mxCell>
        <mxCell id="4VSWZpuP7CSBDdDZYsOe-7" style="edgeStyle=orthogonalEdgeStyle;rounded=0;orthogonalLoop=1;jettySize=auto;html=1;entryX=0.5;entryY=0;entryDx=0;entryDy=0;" parent="1" source="4VSWZpuP7CSBDdDZYsOe-3" target="4VSWZpuP7CSBDdDZYsOe-1" edge="1">
          <mxGeometry relative="1" as="geometry" />
        </mxCell>
        <mxCell id="4VSWZpuP7CSBDdDZYsOe-10" style="edgeStyle=orthogonalEdgeStyle;rounded=0;orthogonalLoop=1;jettySize=auto;html=1;entryX=0.5;entryY=0;entryDx=0;entryDy=0;" parent="1" source="4VSWZpuP7CSBDdDZYsOe-3" target="4VSWZpuP7CSBDdDZYsOe-9" edge="1">
          <mxGeometry relative="1" as="geometry" />
        </mxCell>
        <mxCell id="4VSWZpuP7CSBDdDZYsOe-3" value="Client" style="rounded=1;whiteSpace=wrap;html=1;" parent="1" vertex="1">
          <mxGeometry x="60" y="460" width="120" height="60" as="geometry" />
        </mxCell>
        <mxCell id="4VSWZpuP7CSBDdDZYsOe-6" style="edgeStyle=orthogonalEdgeStyle;rounded=0;orthogonalLoop=1;jettySize=auto;html=1;entryX=0;entryY=0.5;entryDx=0;entryDy=0;" parent="1" source="4VSWZpuP7CSBDdDZYsOe-4" target="4VSWZpuP7CSBDdDZYsOe-3" edge="1">
          <mxGeometry relative="1" as="geometry" />
        </mxCell>
        <mxCell id="4VSWZpuP7CSBDdDZYsOe-4" value="Actor" style="shape=umlActor;verticalLabelPosition=bottom;verticalAlign=top;html=1;outlineConnect=0;" parent="1" vertex="1">
          <mxGeometry x="-90" y="460" width="30" height="60" as="geometry" />
        </mxCell>
        <mxCell id="4VSWZpuP7CSBDdDZYsOe-8" style="edgeStyle=orthogonalEdgeStyle;rounded=0;orthogonalLoop=1;jettySize=auto;html=1;entryX=0.5;entryY=0;entryDx=0;entryDy=0;entryPerimeter=0;" parent="1" source="4VSWZpuP7CSBDdDZYsOe-1" target="4VSWZpuP7CSBDdDZYsOe-2" edge="1">
          <mxGeometry relative="1" as="geometry" />
        </mxCell>
        <mxCell id="4VSWZpuP7CSBDdDZYsOe-9" value="Excel API" style="rounded=1;whiteSpace=wrap;html=1;" parent="1" vertex="1">
          <mxGeometry x="254" y="600" width="120" height="60" as="geometry" />
        </mxCell>
        <mxCell id="4VSWZpuP7CSBDdDZYsOe-12" style="edgeStyle=orthogonalEdgeStyle;rounded=0;orthogonalLoop=1;jettySize=auto;html=1;entryX=0.5;entryY=0;entryDx=0;entryDy=0;entryPerimeter=0;exitX=0.5;exitY=1;exitDx=0;exitDy=0;" parent="1" source="4VSWZpuP7CSBDdDZYsOe-9" target="4VSWZpuP7CSBDdDZYsOe-2" edge="1">
          <mxGeometry relative="1" as="geometry" />
        </mxCell>
        <mxCell id="YkQwtTi_i-MINP4YnnkI-1" value="" style="rounded=0;whiteSpace=wrap;html=1;movable=0;resizable=0;rotatable=0;deletable=0;editable=0;locked=1;connectable=0;" vertex="1" parent="1">
          <mxGeometry x="-1070" width="900" height="890" as="geometry" />
        </mxCell>
        <mxCell id="YkQwtTi_i-MINP4YnnkI-9" style="edgeStyle=orthogonalEdgeStyle;rounded=0;orthogonalLoop=1;jettySize=auto;html=1;entryX=0.5;entryY=0;entryDx=0;entryDy=0;" edge="1" parent="1" source="YkQwtTi_i-MINP4YnnkI-2" target="YkQwtTi_i-MINP4YnnkI-4">
          <mxGeometry relative="1" as="geometry" />
        </mxCell>
        <mxCell id="YkQwtTi_i-MINP4YnnkI-2" value="주문 처리 시작" style="rounded=1;whiteSpace=wrap;html=1;" vertex="1" parent="1">
          <mxGeometry x="-890" y="30" width="120" height="60" as="geometry" />
        </mxCell>
        <mxCell id="YkQwtTi_i-MINP4YnnkI-11" style="edgeStyle=orthogonalEdgeStyle;rounded=0;orthogonalLoop=1;jettySize=auto;html=1;entryX=0.5;entryY=0;entryDx=0;entryDy=0;" edge="1" parent="1" source="YkQwtTi_i-MINP4YnnkI-3" target="YkQwtTi_i-MINP4YnnkI-5">
          <mxGeometry relative="1" as="geometry" />
        </mxCell>
        <mxCell id="YkQwtTi_i-MINP4YnnkI-26" value="" style="edgeStyle=orthogonalEdgeStyle;rounded=0;orthogonalLoop=1;jettySize=auto;html=1;dashed=1;" edge="1" parent="1" source="YkQwtTi_i-MINP4YnnkI-3" target="YkQwtTi_i-MINP4YnnkI-15">
          <mxGeometry relative="1" as="geometry" />
        </mxCell>
        <mxCell id="YkQwtTi_i-MINP4YnnkI-3" value="고객이 결제함" style="rounded=1;whiteSpace=wrap;html=1;" vertex="1" parent="1">
          <mxGeometry x="-890" y="290" width="120" height="60" as="geometry" />
        </mxCell>
        <mxCell id="YkQwtTi_i-MINP4YnnkI-10" style="edgeStyle=orthogonalEdgeStyle;rounded=0;orthogonalLoop=1;jettySize=auto;html=1;entryX=0.5;entryY=0;entryDx=0;entryDy=0;" edge="1" parent="1" source="YkQwtTi_i-MINP4YnnkI-4" target="YkQwtTi_i-MINP4YnnkI-3">
          <mxGeometry relative="1" as="geometry" />
        </mxCell>
        <mxCell id="YkQwtTi_i-MINP4YnnkI-24" value="" style="edgeStyle=orthogonalEdgeStyle;rounded=0;orthogonalLoop=1;jettySize=auto;html=1;dashed=1;" edge="1" parent="1" source="YkQwtTi_i-MINP4YnnkI-4" target="YkQwtTi_i-MINP4YnnkI-16">
          <mxGeometry relative="1" as="geometry" />
        </mxCell>
        <mxCell id="YkQwtTi_i-MINP4YnnkI-25" value="처리됨" style="edgeLabel;html=1;align=center;verticalAlign=middle;resizable=0;points=[];" vertex="1" connectable="0" parent="YkQwtTi_i-MINP4YnnkI-24">
          <mxGeometry x="-0.1429" y="3" relative="1" as="geometry">
            <mxPoint y="-7" as="offset" />
          </mxGeometry>
        </mxCell>
        <mxCell id="YkQwtTi_i-MINP4YnnkI-4" value="물품이 재고에 있는지&lt;div&gt;점검하고 주문을 위해&lt;/div&gt;&lt;div&gt;예약함&lt;/div&gt;" style="rounded=1;whiteSpace=wrap;html=1;" vertex="1" parent="1">
          <mxGeometry x="-890" y="160" width="120" height="60" as="geometry" />
        </mxCell>
        <mxCell id="YkQwtTi_i-MINP4YnnkI-12" style="edgeStyle=orthogonalEdgeStyle;rounded=0;orthogonalLoop=1;jettySize=auto;html=1;entryX=0.5;entryY=0;entryDx=0;entryDy=0;" edge="1" parent="1" source="YkQwtTi_i-MINP4YnnkI-5" target="YkQwtTi_i-MINP4YnnkI-6">
          <mxGeometry relative="1" as="geometry" />
        </mxCell>
        <mxCell id="YkQwtTi_i-MINP4YnnkI-27" value="" style="edgeStyle=orthogonalEdgeStyle;rounded=0;orthogonalLoop=1;jettySize=auto;html=1;dashed=1;" edge="1" parent="1" source="YkQwtTi_i-MINP4YnnkI-5" target="YkQwtTi_i-MINP4YnnkI-17">
          <mxGeometry relative="1" as="geometry" />
        </mxCell>
        <mxCell id="YkQwtTi_i-MINP4YnnkI-5" value="고객에게&lt;div&gt;포인트를 부여함&lt;/div&gt;" style="rounded=1;whiteSpace=wrap;html=1;" vertex="1" parent="1">
          <mxGeometry x="-890" y="420" width="120" height="60" as="geometry" />
        </mxCell>
        <mxCell id="YkQwtTi_i-MINP4YnnkI-13" style="edgeStyle=orthogonalEdgeStyle;rounded=0;orthogonalLoop=1;jettySize=auto;html=1;" edge="1" parent="1" source="YkQwtTi_i-MINP4YnnkI-6" target="YkQwtTi_i-MINP4YnnkI-7">
          <mxGeometry relative="1" as="geometry" />
        </mxCell>
        <mxCell id="YkQwtTi_i-MINP4YnnkI-28" value="" style="edgeStyle=orthogonalEdgeStyle;rounded=0;orthogonalLoop=1;jettySize=auto;html=1;dashed=1;" edge="1" parent="1" source="YkQwtTi_i-MINP4YnnkI-6" target="YkQwtTi_i-MINP4YnnkI-18">
          <mxGeometry relative="1" as="geometry" />
        </mxCell>
        <mxCell id="YkQwtTi_i-MINP4YnnkI-6" value="주문을 포장하고&lt;div&gt;발송함&lt;/div&gt;" style="rounded=1;whiteSpace=wrap;html=1;" vertex="1" parent="1">
          <mxGeometry x="-890" y="550" width="120" height="60" as="geometry" />
        </mxCell>
        <mxCell id="YkQwtTi_i-MINP4YnnkI-7" value="주문 처리 완료" style="rounded=1;whiteSpace=wrap;html=1;" vertex="1" parent="1">
          <mxGeometry x="-890" y="680" width="120" height="60" as="geometry" />
        </mxCell>
        <mxCell id="YkQwtTi_i-MINP4YnnkI-15" value="결제 게이트웨이" style="rounded=1;whiteSpace=wrap;html=1;" vertex="1" parent="1">
          <mxGeometry x="-700" y="290" width="120" height="60" as="geometry" />
        </mxCell>
        <mxCell id="YkQwtTi_i-MINP4YnnkI-16" value="창고" style="rounded=1;whiteSpace=wrap;html=1;" vertex="1" parent="1">
          <mxGeometry x="-700" y="160" width="120" height="60" as="geometry" />
        </mxCell>
        <mxCell id="YkQwtTi_i-MINP4YnnkI-17" value="멤버십" style="rounded=1;whiteSpace=wrap;html=1;" vertex="1" parent="1">
          <mxGeometry x="-700" y="420" width="120" height="60" as="geometry" />
        </mxCell>
        <mxCell id="YkQwtTi_i-MINP4YnnkI-18" value="창고" style="rounded=1;whiteSpace=wrap;html=1;" vertex="1" parent="1">
          <mxGeometry x="-700" y="550" width="120" height="60" as="geometry" />
        </mxCell>
        <mxCell id="YkQwtTi_i-MINP4YnnkI-21" value="" style="endArrow=none;dashed=1;html=1;rounded=0;" edge="1" parent="1">
          <mxGeometry width="50" height="50" relative="1" as="geometry">
            <mxPoint x="-110" y="550" as="sourcePoint" />
            <mxPoint x="-60" y="500" as="targetPoint" />
          </mxGeometry>
        </mxCell>
      </root>
    </mxGraphModel>
  </diagram>
</mxfile>
